<svg width="1841" height="447" viewBox="0 0 1841 447" fill="none" xmlns="http://www.w3.org/2000/svg">
<g clip-path="url(#clip0_574_512)">
<path d="M1841 82.3112L1837.3 88.053L1742.8 235.507V366.577H1693.48V234.777L1594.9 82.3112H1653.93L1655.01 84.0879L1718.13 188.114L1782.37 82.3112H1841Z" fill="#F4FEFF"/>
<path d="M1349.96 82.3112H1300.14V366.577H1349.96V82.3112Z" fill="#F4FEFF"/>
<path d="M1384.22 82.3672H1574.26V126.712H1503.3V366.577H1454.44V126.712H1384.22V82.3672Z" fill="#F4FEFF"/>
<path d="M974.716 82.2198H924.875V366.579H974.716V82.2198Z" fill="#F4FEFF"/>
<path d="M1244.5 82.6866V362.744C1244.5 366.186 1240.32 367.869 1237.97 365.363L1077.48 193.838L1078.24 213.757V366.541H1028.53V86.1279C1028.53 82.6679 1032.75 81.0033 1035.09 83.5282L1195.85 257.054L1194.83 235.901V82.6866H1244.54H1244.5Z" fill="#F4FEFF"/>
<path d="M900.038 82.1801L897.549 87.473L767.847 364.463C766.528 367.306 762.515 367.306 761.178 364.463L628.039 82.1614H683.917L763.24 265.095C763.537 265.787 764.503 265.787 764.8 265.095L844.512 82.1614H900.019L900.038 82.1801Z" fill="#F4FEFF"/>
<path d="M558.228 84.2209L422.005 366.579H480.057L503.092 313.575H619.122L642.138 366.579H701.695L564.692 84.2209C563.373 81.509 559.528 81.509 558.209 84.2209H558.228ZM524.418 265.359L550.203 207.623V207.585L560.791 183.365C561.089 182.692 562.036 182.692 562.333 183.365L572.699 207.885V207.922V207.959L598.149 265.359H524.4H524.418Z" fill="#F4FEFF"/>
<mask id="mask0_574_512" style="mask-type:luminance" maskUnits="userSpaceOnUse" x="0" y="0" width="342" height="447">
<path d="M341.81 0H0V447H341.81V0Z" fill="white"/>
</mask>
<g mask="url(#mask0_574_512)">
<path d="M46.4602 265.974L6.03741 324.103C0.482993 304.24 -1.37467 283.331 1.04029 262.365C2.95369 262.327 4.82993 262.29 6.74332 262.29C20.3228 262.29 33.5865 263.543 46.4602 265.956V265.974Z" fill="#F4FEFF"/>
<path d="M144.415 312.563C116.383 344.658 96.9514 384.008 89.5951 427.324C60.5227 412.025 37.2461 388.853 21.6975 361.546L81.3842 275.7C104.661 284.341 125.95 296.909 144.396 312.582L144.415 312.563Z" fill="#F4FEFF"/>
<path d="M214.839 441.632C200.999 445.13 186.324 447 170.905 447C153.815 447 137.634 444.699 122.513 440.435C127.51 402.038 143.523 366.914 167.394 338.224C168.007 337.476 169.196 337.476 169.809 338.224C193.903 367.195 210.027 402.749 214.839 441.613H214.82L214.839 441.632Z" fill="#F4FEFF"/>
<path d="M235.849 247.271C211.105 257.408 188.423 271.436 168.602 288.567C148.762 271.417 126.005 257.371 101.205 247.215L168.156 150.933C168.75 150.054 170.088 150.054 170.682 150.933L235.83 247.253H235.849V247.271Z" fill="#F4FEFF"/>
<path d="M316.824 361.752C300.57 387.973 277.498 413.428 248.481 427.699C241.403 383.56 221.266 345.181 192.77 312.582C211.049 297.04 232.152 284.528 255.206 275.887L316.824 361.752Z" fill="#F4FEFF"/>
<path d="M330.441 228.718C309.468 228.718 289.09 231.299 269.677 236.162H269.658L171.109 90.4473C170.515 89.5683 169.177 89.5496 168.583 90.4473L67.266 236.106C48.5222 231.449 28.9424 228.905 8.76817 228.755C14.0811 213.438 21.9204 198.419 32.472 184.13L167.505 1.70193C169.159 -0.561125 172.633 -0.561125 174.323 1.70193L309.357 184.112C319.927 198.401 327.748 213.419 333.06 228.737C332.187 228.718 331.314 228.718 330.441 228.718Z" fill="#F4FEFF"/>
<path d="M341.81 280.469C341.81 297.694 339.005 314.658 333.692 330.817L289.926 266.124C303.041 263.618 316.583 262.29 330.441 262.29C333.896 262.29 337.352 262.383 340.77 262.533C341.457 268.518 341.81 274.484 341.81 280.45V280.469Z" fill="#F4FEFF"/>
</g>
</g>
<defs>
<clipPath id="clip0_574_512">
<rect width="1841" height="447" fill="white"/>
</clipPath>
</defs>
</svg>
