<svg width="32" height="32" viewBox="0 0 32 32" fill="none" xmlns="http://www.w3.org/2000/svg">
  <rect width="32" height="32" rx="7" fill="#015A66"/>
  <g transform="translate(7.5, 4) scale(0.1025)">
    <mask id="m" style="mask-type:luminance" maskUnits="userSpaceOnUse" x="0" y="0" width="166" height="216">
      <path d="M165.25 0H0V216H165.25V0Z" fill="white"/>
    </mask>
    <g mask="url(#m)" fill="white">
      <path d="M22.4605 128.521L2.9179 156.61C0.232582 147.012 -0.665517 136.908 0.502011 126.777C1.42705 126.759 2.33413 126.741 3.25917 126.741C9.82427 126.741 16.2367 127.346 22.4605 128.512V128.521Z"/>
      <path d="M69.8211 151.036C56.2688 166.545 46.8746 185.56 43.3182 206.491C29.2629 199.099 18.0098 187.901 10.4927 174.706L39.3486 133.223C50.6018 137.399 60.894 143.472 69.8121 151.045L69.8211 151.036Z"/>
      <path d="M103.869 213.405C97.1782 215.095 90.0832 215.998 82.629 215.998C74.3665 215.998 66.544 214.887 59.2335 212.826C61.6494 194.272 69.391 177.299 80.9316 163.435C81.228 163.074 81.8027 163.074 82.0991 163.435C93.7475 177.435 101.543 194.615 103.869 213.396H103.86L103.869 213.405Z"/>
      <path d="M114.024 119.479C102.061 124.377 91.0957 131.155 81.5129 139.434C71.9213 131.146 60.9195 124.359 48.9299 119.452L81.2974 72.9258C81.5848 72.501 82.2314 72.501 82.5188 72.9258L114.015 119.47H114.024V119.479Z"/>
      <path d="M153.171 174.8C145.313 187.471 134.159 199.771 120.13 206.667C116.709 185.338 106.973 166.793 93.1964 151.04C102.034 143.53 112.236 137.484 123.382 133.308L153.171 174.8Z"/>
      <path d="M159.754 110.519C149.615 110.519 139.763 111.766 130.378 114.116H130.369L82.7244 43.7038C82.437 43.2791 81.7904 43.27 81.503 43.7038L32.5207 114.089C23.4589 111.839 13.993 110.61 4.23962 110.537C6.80819 103.135 10.5982 95.8782 15.6994 88.9735L80.9821 0.820167C81.7814 -0.273389 83.4609 -0.273389 84.2782 0.820167L149.561 88.9644C154.671 95.8692 158.452 103.126 161.021 110.528C160.599 110.519 160.176 110.519 159.754 110.519Z"/>
      <path d="M165.252 135.526C165.252 143.849 163.896 152.046 161.328 159.855L140.169 128.594C146.509 127.383 153.056 126.741 159.756 126.741C161.427 126.741 163.097 126.786 164.75 126.858C165.082 129.75 165.252 132.634 165.252 135.517V135.526Z"/>
    </g>
  </g>
</svg>
